<svg xmlns="http://www.w3.org/2000/svg" xmlns:xlink="http://www.w3.org/1999/xlink" fill="none" version="1.1" width="1280" height="720" viewBox="0 0 1280 720"><clipPath id="master_svg0_5_0"><rect x="0" y="0" width="1280" height="720" rx="36"/></clipPath><g clip-path="url(#master_svg0_5_0)" style="mix-blend-mode:passthrough"><rect x="0" y="0" width="1280" height="720" rx="36" fill="#3662EC" fill-opacity="1"/><g><g style="mix-blend-mode:passthrough"><g><path d="M199.1406,387.696L159.1094,345.4616L159.8281,335.3366L202.1562,301.7741L210.6562,312.4773L174.0781,341.5554L208.7812,378.2898L199.1406,387.696ZM144.4219,389.571L130.875,387.837L144.7031,281.68038L158.2344,283.25851L144.4219,389.571ZM285.85900000000004,383.5085L270.297,374.2585L224.7969,381.7741L216.875,374.696L220.3438,316.696L233.875,316.696L230.98399999999998,366.8835L267.14099999999996,361.0866L270.156,316.1179L283.844,317.2741L280.672,364.571L292.906,371.946L285.85900000000004,383.5085ZM308.438,334.8679L305.98400000000004,371.321L342.281,364.3835L344.297,338.196L308.438,334.8679ZM299.938,386.227L291.875,378.9929L297.35900000000004,296.696L311.031,296.696L309.297,321.4304L352.078,325.1804L358.26599999999996,332.4148L355.39099999999996,370.6023L350.062,376.6804L299.938,386.227ZM425.078,389.43L369.35900000000004,379.0241L363.875,371.3523L370.797,319.8523L376.844,314.071L419.031,310.6023L425.656,314.2116L437.891,338.5241L433.141,348.2116L388.359,357.6179L385.484,344.446L421.625,336.6335L415.578,324.6335L383.312,327.0866L378.14099999999996,366.8679L427.672,376.1179L425.078,389.43ZM453.125,366.7273L491,368.8991L491,328.5398L455.578,329.9773L453.125,366.7273ZM498.062,382.9304L445.359,379.8835L439.016,372.5085L442.484,322.8991L448.953,316.6804L496.766,314.6491L503.828,321.3054L505.266,375.9773L498.062,382.9304ZM525.281,395.696L511.75,395.696L516.781,309.7898L524.844,303.4148L569.781,312.6804L574.953,318.6023L579.562,354.6179L574.2339999999999,362.2898L535.6410000000001,370.3835L532.7660000000001,357.2273L565.453,350.1335L562.1410000000001,325.1179L529.75,318.4616L525.281,395.696ZM626.312,390.727L585.125,383.071L587.719,369.6179L624.0160000000001,376.5554L634.672,358.0398L591.75,351.9773L586,344.446L588.172,316.5398L594.547,310.3054L641,306.696L641,320.2898L601.3910000000001,323.3366L600.1089999999999,339.2429L646.328,345.8991L651.375,356.0241L633.375,387.555L626.312,390.727Z" fill="#FFFFFF" fill-opacity="1"/><g style="mix-blend-mode:passthrough"><path d="M200.45312,519.24L206.3438,519.24L206.3438,497.24L228.2344,497.24L228.2344,519.24L234.1875,519.24L234.1875,472.24L228.2344,472.24L228.2344,492.1306L206.3438,492.1306L206.3438,472.24L200.45312,472.24L200.45312,519.24ZM260.9531,520.24C265.625,520.24,269.3438,518.7087,272.3438,516.7244000000001L270.2969,512.7869000000001C267.6719,514.5369000000001,264.9844,515.5837,261.5938,515.5837C255,515.5837,250.4688,510.7712,250.0781,503.24L273.5,503.24C273.625,502.3494,273.7656,501.1931,273.7656,499.9275C273.7656,489.7087,268.7656,483.24,259.875,483.24C251.9375,483.24,244.3125,490.3025,244.3125,501.8962C244.3125,513.5056,251.6719,520.24,260.9531,520.24ZM250.0156,499.0837C250.7188,491.9431,255.0781,487.9119,260,487.9119C265.4375,487.9119,268.6406,491.8181,268.6406,499.0837L250.0156,499.0837ZM288.0156,520.24C289.625,520.24,290.5781,519.99,291.4219,519.74L290.5781,515.2556C289.9375,515.3806,289.6875,515.3806,289.375,515.3806C288.4688,515.3806,287.7656,514.6775,287.7656,512.8806L287.7656,468.47437L281.875,468.47437L281.875,512.5056C281.875,517.4275,283.6719,520.24,288.0156,520.24ZM306.016,520.24C307.625,520.24,308.578,519.99,309.422,519.74L308.578,515.2556C307.938,515.3806,307.688,515.3806,307.375,515.3806C306.469,515.3806,305.766,514.6775,305.766,512.8806L305.766,468.47437L299.875,468.47437L299.875,512.5056C299.875,517.4275,301.672,520.24,306.016,520.24ZM331.375,520.24C339.89099999999996,520.24,347.453,513.5525,347.453,501.8181C347.453,490.0056,339.89099999999996,483.24,331.375,483.24C322.875,483.24,315.312,490.0056,315.312,501.8181C315.312,513.5525,322.875,520.24,331.375,520.24ZM331.375,515.3806C325.375,515.3806,321.328,509.9744,321.328,501.8181C321.328,493.6619,325.375,488.1775,331.375,488.1775C337.39099999999996,488.1775,341.5,493.6619,341.5,501.8181C341.5,509.9744,337.39099999999996,515.3806,331.375,515.3806ZM365.25,519.24L371.203,519.24L375.75,504.9119L392.89099999999996,504.9119L397.375,519.24L403.64099999999996,519.24L387.703,472.24L381.125,472.24L365.25,519.24ZM377.219,500.24L379.51599999999996,492.99C381.188,487.6462,382.719,482.56812,384.188,477.0525L384.453,477.0525C385.98400000000004,482.50562,387.453,487.6462,389.188,492.99L391.422,500.24L377.219,500.24ZM409.875,519.24L415.76599999999996,519.24L415.76599999999996,493.74C419.219,490.1775,421.656,488.365,425.23400000000004,488.365C429.844,488.365,431.828,491.1462,431.828,497.7556L431.828,519.24L437.656,519.24L437.656,496.9744C437.656,488.0525,434.328,483.24,427.031,483.24C422.297,483.24,418.64099999999996,485.865,415.39099999999996,489.2087L415.25,489.2087L414.672,484.24L409.875,484.24L409.875,519.24ZM457.969,520.24C466.156,520.24,470.578,515.5681,470.578,509.8337C470.578,503.115,465.078,501.0369,460.016,499.0681C456.109,497.5681,452.531,496.2712,452.531,492.9431C452.531,490.1462,454.578,487.7869,458.984,487.7869C462.062,487.7869,464.5,489.1619,466.859,490.9275L469.672,487.2087C467.047,485.0369,463.219,483.24,458.922,483.24C451.312,483.24,446.953,487.5994,446.953,493.2087C446.953,499.2712,452.203,501.615,457.078,503.4431C460.906,504.8806,465,506.5681,465,510.1619C465,513.2244000000001,462.766,515.7087,458.156,515.7087C454,515.7087,450.922,514.0056,447.85900000000004,511.4587L445.047,515.4431C448.297,518.1931,453.047,520.24,457.969,520.24ZM478.875,519.24L484.766,519.24L484.766,484.24L478.875,484.24L478.875,519.24ZM481.828,476.9275C484.125,476.9275,485.734,475.396248,485.734,473.02125C485.734,470.78687,484.125,469.24,481.828,469.24C479.516,469.24,477.984,470.78687,477.984,473.02125C477.984,475.396248,479.516,476.9275,481.828,476.9275ZM512.172,520.24C520.1089999999999,520.24,527.281,513.365,527.281,501.2244C527.281,490.2712,522.406,483.24,513.453,483.24C509.547,483.24,505.719,485.4275,502.516,488.115L502.766,481.89625L502.766,467.95875L496.875,467.95875L496.875,519.24L501.547,519.24L502.062,515.8337L502.312,515.8337C505.328,518.5837,508.969,520.24,512.172,520.24ZM511.219,515.3181C508.906,515.3181,505.781,514.4119000000001,502.766,511.6619L502.766,493.0056C506.031,489.8806,509.109,488.1775,511.984,488.1775C518.6410000000001,488.1775,521.203,493.3962,521.203,501.2869C521.203,510.0369,516.969,515.3181,511.219,515.3181ZM543.0160000000001,520.24C544.625,520.24,545.578,519.99,546.422,519.74L545.578,515.2556C544.938,515.3806,544.688,515.3806,544.375,515.3806C543.469,515.3806,542.7660000000001,514.6775,542.7660000000001,512.8806L542.7660000000001,468.47437L536.875,468.47437L536.875,512.5056C536.875,517.4275,538.672,520.24,543.0160000000001,520.24ZM568.953,520.24C573.625,520.24,577.344,518.7087,580.344,516.7244000000001L578.297,512.7869000000001C575.672,514.5369000000001,572.9839999999999,515.5837,569.594,515.5837C563,515.5837,558.469,510.7712,558.078,503.24L581.5,503.24C581.625,502.3494,581.7660000000001,501.1931,581.7660000000001,499.9275C581.7660000000001,489.7087,576.7660000000001,483.24,567.875,483.24C559.938,483.24,552.312,490.3025,552.312,501.8962C552.312,513.5056,559.672,520.24,568.953,520.24ZM558.0160000000001,499.0837C558.719,491.9431,563.078,487.9119,568,487.9119C573.438,487.9119,576.6410000000001,491.8181,576.6410000000001,499.0837L558.0160000000001,499.0837Z" fill="#FFFFFF" fill-opacity="1"/></g></g></g><g style="mix-blend-mode:passthrough"><g><path d="M922.0029999999999,425.166C892.233,425.166,865.509,412.061,846.941,391.235C830.5740000000001,372.814,820.588,348.38800000000003,820.588,321.591C820.588,264.4,866.002,218.059,922.0029999999999,218.059C958.6030000000001,218.059,990.652,237.834,1008.418,267.497C1008.454,267.539,1008.49,267.57,1008.49,267.61199999999997C1017.944,283.35900000000004,1023.375,301.817,1023.375,321.591C1023.375,378.783,978.002,425.166,922.0029999999999,425.166ZM1144.943,536.784C1117.979,506,1094.221,470.488,1094.159,339.971C1094.283,336.964,1094.2930000000001,336.86400000000003,1094.2930000000001,333.81899999999996C1094.2930000000001,280.531,1075.505,232.227,1045.0529999999999,197.0242C1047.35,194.01080000000002,1049.711,190.4273,1052.05,186.4356C1052.3519999999999,185.9385,1052.618,185.44150000000002,1052.8809999999999,184.94459999999998C1055.634,180.1839,1058.354,174.8947,1060.8809999999999,169.2603C1063.374,163.6992,1065.637,157.913,1067.565,152.1584C1067.79,151.43110000000001,1068.058,150.7092,1068.242,149.9768C1069.412,146.2571,1070.4270000000001,142.5426,1071.262,138.97480000000002C1075.115,122.0662,1074.392,107.57478,1064.81,103.473243C1059.3690000000001,101.13477,1052.8029999999999,107.72664,1045.175,117.4259C1044.915,117.7711,1044.612,118.1165,1044.31,118.4984C1043.971,118.9221,1043.6309999999999,119.3459,1043.289,119.8011C1038.308,126.31960000000001,1032.799,133.9525,1026.798,141.0045C1026.341,141.5435,1025.891,142.077,1025.438,142.61599999999999C1025.172,142.9193,1024.911,143.228,1024.643,143.5367C1018.0830000000001,151.0126,1010.954,157.6619,1003.256,161.51760000000002C979.281,147.0156,951.9169999999999,138.7969,922.87,138.7969C893.08,138.7969,865.064,147.4393,840.654,162.6476C832.012,159.05360000000002,824.062,151.8025,816.809,143.5367C816.542,143.228,816.281,142.9193,816.019,142.61599999999999C815.562,142.077,815.111,141.5435,814.655,141.0045C808.654,133.9525,803.145,126.31960000000001,798.164,119.8011C797.826,119.3459,797.482,118.9221,797.144,118.4984C796.841,118.1165,796.544,117.7711,796.277,117.4259C788.6495,107.72664,782.0842,101.13477,776.6473,103.473243C767.061,107.57478,766.3429,122.0662,770.1897,138.97480000000002C771.0206000000001,142.5426,772.0413,146.2571,773.2108000000001,149.9768C773.4005999999999,150.7092,773.6621,151.43110000000001,773.8878,152.1584C775.8165,157.913,778.0835,163.6992,780.5711,169.2603C783.0999,174.8947,785.8184,180.1839,788.5779,184.94459999999998C788.8394,185.44150000000002,789.1009,185.9385,789.4037,186.4356C792.456,191.6463,795.543,196.1559,798.482,199.62439999999998C769.3331000000001,234.587,751.4476,281.828,751.4476,333.81899999999996C751.4476,337.962,751.2321,339.432,751.4528,343.514C750.9347,471.31,725.7504,506.263,699.01711,536.784C679.8493,558.668,696.15488,604.6220000000001,736.1677999999999,584.114C816.809,542.784,835.607,619.494,921.881,616.937C1008.154,614.379,1024.643,542.784,1107.792,584.114C1148.047,604.129,1164.106,558.668,1144.943,536.784Z" fill-rule="evenodd" fill="#FFFFFF" fill-opacity="1"/><path d="M1015.3919564208984,306.5812532470703C1015.3919564208984,335.53365324707033,992.4189564208984,358.9964532470703,964.0690564208984,358.9964532470703C935.7250564208985,358.9964532470703,912.7459564208984,335.53365324707033,912.7459564208984,306.5812532470703C912.7459564208984,277.6302532470703,935.7250564208985,254.1614532470703,964.0690564208984,254.1614532470703C992.4189564208984,254.1614532470703,1015.3919564208984,277.6302532470703,1015.3919564208984,306.5812532470703Z" fill-rule="evenodd" fill="#FFFFFF" fill-opacity="1"/></g></g></g></g></svg>